<?xml version="1.0" encoding="UTF-8" standalone="no"?>
<svg
   xmlns:dc="http://purl.org/dc/elements/1.1/"
   xmlns:cc="http://creativecommons.org/ns#"
   xmlns:rdf="http://www.w3.org/1999/02/22-rdf-syntax-ns#"
   xmlns:svg="http://www.w3.org/2000/svg"
   xmlns="http://www.w3.org/2000/svg"
   xmlns:xlink="http://www.w3.org/1999/xlink"
   xmlns:sodipodi="http://sodipodi.sourceforge.net/DTD/sodipodi-0.dtd"
   xmlns:inkscape="http://www.inkscape.org/namespaces/inkscape"
   version="1.1"
   id="credits"
   sodipodi:docname="credits.svg"
   inkscape:version="0.48.1 "
   x="0px"
   y="0px"
   width="384.237"
   height="384.30301"
   viewBox="0 0 384 384"
   xml:space="preserve">
	<metadata
   id="metadata203">
		<rdf:RDF>
			<cc:Work
   rdf:about="">
				<dc:format>
					image/svg+xml
				</dc:format>
				<dc:type
   rdf:resource="http://purl.org/dc/dcmitype/StillImage" />
			</cc:Work>
		</rdf:RDF>
	</metadata>
	<defs
   id="defs201" />
	<sodipodi:namedview
   id="namedview262"
   objecttolerance="10"
   gridtolerance="10"
   guidetolerance="10"
   inkscape:zoom="1.3044012"
   pagecolor="#ffffff"
   bordercolor="#666666"
   inkscape:cx="36.972019"
   showgrid="false"
   borderopacity="1"
   inkscape:cy="152.94502"
   inkscape:pageopacity="0"
   inkscape:pageshadow="2"
   inkscape:window-maximized="1"
   inkscape:current-layer="credits"
   inkscape:window-width="2560"
   inkscape:window-height="962"
   inkscape:window-y="-8"
   inkscape:window-x="-8"
   fit-margin-top="0"
   fit-margin-left="0"
   fit-margin-right="0"
   fit-margin-bottom="0">
	</sodipodi:namedview>
	<path
   id="path3312"
   inkscape:connector-curvature="0"
   d="m 381.736,373.722 c 0,4.46 -3.629,8.081 -8.104,8.081 H 10.604 c -4.475,0 -8.104,-3.621 -8.104,-8.081 V 10.582 C 2.5,6.119 6.128,2.5 10.604,2.5 h 363.029 c 4.475,0 8.104,3.619 8.104,8.082 v 363.14 z"
   style="fill:#ffffff;stroke:#555555;stroke-width:5" />
	
	
	
	
	
	
	
	
	
	
	
	
	<g
   id="g33"
   transform="matrix(0.83813006,0,0,0.83813006,199.18174,-105.21353)">
		<path
   id="path35"
   d="m 73.67,188.525 c -1.451,6.437 -7.842,10.053 -13.439,15 -7.173,7.155 -7.951,13.826 -7.918,15.516 0.007,0.264 -0.1,0.244 -0.1,0.244 0,0 -1.772,-9.967 8.622,-19.081 4.383,-3.782 10.398,-7.063 12.233,-11.826 l 0.602,0.147 z"
   inkscape:connector-curvature="0"
   style="fill:#8e8d8d" />
		<text
   transform="translate(88.7041,206.9927)"
   font-size="12.6216"
   id="text32"
   style="font-size:12.62160015px;fill:#8e8d8d;font-family:OfficinaSansStd-Bold">    CRDP   </text>



		<text
   transform="translate(88.7041,218.8247)"
   font-size="10.2551"
   id="text34"
   style="font-size:10.25510025px;fill:#8e8d8d;font-family:OfficinaSansStd-Book">    Académie de Versailles   </text>



		<path
   id="path43"
   d="m 63.972,154.11 c 0.063,1.375 -0.962,3.704 4.551,8.888 2.997,2.821 4.396,4.739 4.396,6.785 h 0.334 c -0.197,-2.036 -0.416,-4.752 -3.233,-7.507 -4.206,-4.107 -5.731,-5.445 -6.01,-8.224 -0.015,-0.134 -0.028,-0.103 -0.038,0.058"
   inkscape:connector-curvature="0"
   style="fill:#8e8d8d" />
		<path
   id="path45"
   d="m 131.379,169.659 c -5.369,0 -9.716,4.347 -9.716,9.712 0,5.368 4.347,9.712 9.716,9.712 5.363,0 9.711,-4.345 9.711,-9.712 -0.001,-5.365 -4.348,-9.712 -9.711,-9.712 z m 3.154,7.871 c -0.411,0.221 -1.012,0.125 -1.242,-0.296 -0.231,-0.421 -0.298,-0.549 -0.48,-0.673 -0.177,-0.119 -0.327,-0.171 -0.606,-0.171 0,0 -0.542,0 -0.902,0 0,0.643 0,6.545 0,6.545 0,0.533 -0.443,0.96 -0.981,0.96 -0.544,0 -0.979,-0.427 -0.979,-0.96 0,0 0,-6.987 0,-7.375 0.005,-0.736 0.29,-1.148 0.979,-1.148 0.522,0 1.884,0 1.884,0 0.675,0 1.256,0.102 1.897,0.604 0.503,0.399 0.738,0.744 0.899,1.309 0.045,0.121 0.069,0.242 0.063,0.36 -0.002,0.352 -0.188,0.666 -0.532,0.845 z"
   inkscape:connector-curvature="0"
   style="fill:#8e8d8d" />
		<path
   id="path47"
   d="m 92.383,169.659 c -5.364,0 -9.712,4.347 -9.712,9.712 0,5.368 4.348,9.712 9.712,9.712 5.369,0 9.715,-4.345 9.715,-9.712 0.001,-5.365 -4.346,-9.712 -9.715,-9.712 z m -0.738,12.033 c 0.179,0.178 0.335,0.235 0.654,0.235 h 1.879 c 0.53,0 0.976,0.459 0.976,1 0,0.541 -0.436,0.977 -0.976,0.977 h -1.879 c -0.895,0 -1.493,-0.227 -2.082,-0.797 -0.667,-0.665 -0.802,-1.305 -0.802,-2.063 v -3.76 c 0,-0.862 0.235,-1.461 0.824,-2.067 0.601,-0.578 1.197,-0.816 2.06,-0.816 h 1.879 c 0.53,0 0.976,0.456 0.976,1.003 0,0.536 -0.436,0.975 -0.976,0.975 h -1.879 c -0.295,0 -0.463,0.07 -0.654,0.252 -0.187,0.191 -0.251,0.356 -0.251,0.653 v 3.76 c -0.001,0.294 0.063,0.465 0.251,0.648 z"
   inkscape:connector-curvature="0"
   style="fill:#8e8d8d" />
		<path
   id="path49"
   d="m 170.345,169.659 c -5.364,0 -9.716,4.348 -9.716,9.714 0,5.366 4.352,9.711 9.716,9.711 5.364,0 9.712,-4.345 9.712,-9.711 0,-5.366 -4.348,-9.714 -9.712,-9.714 z m 3.196,13.269 c 0,0.54 -0.435,0.979 -0.978,0.979 -0.541,0 -0.997,-0.448 -0.997,-0.979 v -5.646 c 0,-0.282 -0.063,-0.441 -0.254,-0.629 -0.208,-0.206 -0.36,-0.274 -0.629,-0.274 0,0 -1.056,0 -1.524,0 0,0.645 0,6.549 0,6.549 0,0.53 -0.458,0.979 -0.999,0.979 -0.541,0 -0.98,-0.439 -0.98,-0.979 0,0 -0.008,-7.174 0,-7.526 0.005,-0.567 0.351,-0.986 0.98,-1.002 0.33,-0.008 2.523,0 2.523,0 0.857,0 1.427,0.232 2.041,0.823 0.586,0.587 0.816,1.167 0.816,2.059 v 5.646 l 0.001,0 z"
   inkscape:connector-curvature="0"
   style="fill:#8e8d8d" />
		<path
   id="path51"
   d="m 72.884,169.659 c -5.363,0 -9.712,4.347 -9.712,9.712 0,5.365 4.348,9.712 9.712,9.712 5.366,0 9.716,-4.348 9.713,-9.712 0.001,-5.365 -4.347,-9.712 -9.713,-9.712 z m 2.255,13.471 c -0.577,0.601 -1.446,0.95 -2.33,0.937 -0.941,-0.018 -1.338,-0.111 -2.311,-0.425 -0.391,-0.122 -0.639,-0.459 -0.639,-0.88 -0.008,-0.283 0.116,-0.554 0.349,-0.753 0.253,-0.218 0.596,-0.311 0.907,-0.246 0,0 0.377,0.105 0.383,0.106 0.33,0.098 0.704,0.212 1.319,0.197 0.469,0 1.035,-0.221 0.981,-0.625 -0.042,-0.154 -0.155,-0.249 -0.145,-0.24 -3.026,-2.575 -3.038,-2.585 -3.047,-2.596 -0.535,-0.555 -0.747,-1.044 -0.747,-1.749 0,-1.947 1.596,-2.638 2.958,-2.638 0.789,0 1.446,0.229 1.959,0.407 0.447,0.132 0.681,0.452 0.681,0.919 0,0.334 -0.137,0.627 -0.372,0.81 -0.238,0.187 -0.56,0.24 -0.916,0.146 0,0 -0.089,-0.025 -0.092,-0.027 -0.472,-0.139 -0.847,-0.252 -1.261,-0.252 -0.461,0 -0.952,0.258 -0.952,0.637 -0.04,0.111 0.258,0.36 0.258,0.36 0,0 2.762,2.351 2.965,2.528 0.504,0.465 0.779,1.115 0.784,1.656 0.042,0.638 -0.27,1.243 -0.732,1.728 z"
   inkscape:connector-curvature="0"
   style="fill:#8e8d8d" />
		<g
   id="g53">
			<path
   id="path55"
   d="m 111.897,169.654 c -5.365,0 -9.713,4.348 -9.713,9.713 0,5.366 4.348,9.716 9.713,9.716 5.372,0 9.717,-4.351 9.717,-9.716 0,-5.365 -4.345,-9.713 -9.717,-9.713 z m 1.172,4.918 c 1.37,0.478 2.327,1.761 2.327,3.295 v 1.264 c 0,0.283 -0.085,0.507 -0.242,0.662 -0.206,0.231 -0.439,0.334 -0.756,0.334 0,0 -3.379,0 -4.006,0 0,0.371 0,0.886 0,0.886 0,0.302 0.05,0.439 0.224,0.616 0.187,0.187 0.348,0.25 0.641,0.25 h 3.142 c 0.544,0 0.998,0.467 0.998,1.017 0,0.55 -0.448,0.994 -0.998,0.994 h -3.142 c -0.878,0 -1.504,-0.252 -2.08,-0.844 -0.564,-0.589 -0.799,-1.183 -0.799,-2.031 v -2.535 c 0,0 0.019,-0.619 0.017,-0.622 0.065,-1.467 1.092,-2.78 2.332,-3.309 0,0 0.97,-1.49 1.101,-1.695 0.137,-0.214 0.361,-0.372 0.623,-0.427 0.255,-0.06 0.525,-0.002 0.738,0.137 0.149,0.089 0.27,0.214 0.347,0.355 0.037,0.068 0.06,0.141 0.081,0.225 0.061,0.259 0.008,0.547 -0.153,0.795 l -0.395,0.633 z"
   inkscape:connector-curvature="0"
   style="fill:#8e8d8d" />
			<path
   id="path57"
   d="m 111.895,176.486 c -0.832,0 -1.503,0.679 -1.503,1.508 0,0 0,0.129 0,0.241 0.543,0 2.469,0 3.013,0 0,-0.112 0,-0.241 0,-0.241 -0.001,-0.828 -0.679,-1.508 -1.51,-1.508 z"
   inkscape:connector-curvature="0"
   style="fill:#8e8d8d" />
		</g>
		<g
   id="g59">
			<path
   id="path61"
   d="m 141.187,179.368 c 0,5.358 4.361,9.716 9.719,9.716 5.355,0 9.712,-4.358 9.712,-9.716 0,-5.354 -4.356,-9.714 -9.712,-9.714 -5.358,0 -9.719,4.36 -9.719,9.714 z m 2.068,0 c 0,-4.214 3.432,-7.644 7.651,-7.644 4.217,0 7.645,3.432 7.645,7.644 0,4.216 -3.428,7.651 -7.645,7.651 -4.218,0 -7.651,-3.436 -7.651,-7.651 z"
   inkscape:connector-curvature="0"
   style="fill:#8e8d8d" />
			<path
   id="path63"
   d="m 151.4,165.237 h 3.881 l -2.809,2.955 h -2.205 l 1.133,-2.955 z"
   inkscape:connector-curvature="0"
   style="fill:#8e8d8d" />
			<path
   id="path65"
   d="m 147.35,174.055 h 7.124 v 2.377 h -4.403 v 1.532 h 4.115 v 2.377 h -4.115 v 1.533 h 4.4 v 2.375 h -7.121 v -10.194 z"
   inkscape:connector-curvature="0"
   style="fill:#8e8d8d" />
		</g>
	</g>
	<g
   id="g109"
   transform="matrix(0.68600571,0,0,0.68600571,-29.58915,-18.802423)">
		<g
   id="g111">
			<path
   id="path113"
   d="m 211.96,75.161 c 0.958,0 1.783,0.236 2.474,0.709 0.692,0.474 1.038,1.029 1.038,1.667 v 17.878 c 0,0.662 -0.346,1.224 -1.038,1.685 -0.691,0.46 -1.516,0.692 -2.474,0.692 -1.03,0 -1.889,-0.23 -2.58,-0.692 -0.692,-0.461 -1.038,-1.023 -1.038,-1.685 V 77.537 c 0,-0.638 0.347,-1.193 1.038,-1.667 0.691,-0.474 1.551,-0.709 2.58,-0.709 z"
   inkscape:connector-curvature="0"
   style="fill:#beea40" />
			<path
   id="path115"
   d="m 244.259,75.125 c 1.454,0 2.819,0.189 4.096,0.568 1.277,0.379 2.396,0.9 3.353,1.561 0.958,0.664 1.73,1.426 2.315,2.289 0.586,0.863 0.913,1.791 0.985,2.785 V 95.38 c 0,0.687 -0.355,1.259 -1.064,1.721 -0.711,0.46 -1.545,0.692 -2.501,0.692 -1.029,0 -1.889,-0.23 -2.58,-0.692 -0.692,-0.461 -1.038,-1.034 -1.038,-1.721 V 82.61 c 0,-0.686 -0.347,-1.259 -1.037,-1.721 -0.692,-0.461 -1.535,-0.691 -2.528,-0.691 -0.994,0 -1.846,0.23 -2.555,0.691 -0.709,0.461 -1.063,1.035 -1.063,1.721 v 12.77 c 0,0.687 -0.347,1.259 -1.038,1.721 -0.691,0.46 -1.535,0.692 -2.527,0.692 -0.993,0 -1.836,-0.23 -2.529,-0.692 -0.69,-0.461 -1.036,-1.034 -1.036,-1.721 V 82.61 c 0,-0.686 -0.347,-1.259 -1.038,-1.721 -0.692,-0.461 -1.552,-0.691 -2.58,-0.691 -0.995,0 -1.837,0.23 -2.529,0.691 -0.692,0.461 -1.036,1.035 -1.036,1.721 v 12.77 c 0,0.687 -0.347,1.259 -1.039,1.721 -0.691,0.46 -1.552,0.692 -2.58,0.692 -0.994,0 -1.836,-0.23 -2.527,-0.692 -0.692,-0.461 -1.038,-1.034 -1.038,-1.721 V 82.327 c 0,-0.922 0.275,-1.821 0.826,-2.697 0.549,-0.875 1.312,-1.643 2.287,-2.305 0.976,-0.662 2.12,-1.194 3.433,-1.596 1.313,-0.402 2.715,-0.603 4.204,-0.603 1.347,0 2.615,0.166 3.803,0.497 1.188,0.332 2.315,0.78 3.38,1.348 1.029,-0.545 2.137,-0.987 3.325,-1.33 1.188,-0.343 2.473,-0.516 3.856,-0.516 z"
   inkscape:connector-curvature="0"
   style="fill:#beea40" />
			<path
   id="path117"
   d="m 271.343,75.125 c 1.702,0 3.334,0.208 4.896,0.621 1.56,0.414 2.927,0.993 4.098,1.738 1.171,0.746 2.109,1.626 2.819,2.643 0.709,1.018 1.064,2.117 1.064,3.299 V 95.38 c 0,0.615 -0.329,1.148 -0.985,1.597 -0.656,0.449 -1.462,0.686 -2.42,0.71 -0.957,0 -1.783,-0.207 -2.476,-0.621 -0.691,-0.414 -1.038,-0.94 -1.038,-1.579 v -4.151 h -11.865 v 4.044 c 0,0.616 -0.355,1.153 -1.063,1.614 -0.711,0.461 -1.525,0.692 -2.449,0.692 -0.921,0 -1.738,-0.213 -2.447,-0.639 -0.71,-0.425 -1.063,-0.945 -1.063,-1.561 V 83.709 c 0.035,-1.182 0.381,-2.294 1.038,-3.334 0.655,-1.04 1.561,-1.952 2.714,-2.732 1.152,-0.78 2.508,-1.396 4.069,-1.844 1.559,-0.448 3.262,-0.674 5.108,-0.674 z m 5.958,8.584 c 0,-0.543 -0.15,-1.058 -0.451,-1.544 -0.301,-0.484 -0.728,-0.904 -1.277,-1.259 -0.55,-0.355 -1.188,-0.639 -1.915,-0.852 -0.728,-0.213 -1.516,-0.32 -2.367,-0.32 -0.781,0 -1.526,0.102 -2.235,0.302 -0.71,0.202 -1.33,0.467 -1.863,0.799 -0.531,0.331 -0.956,0.733 -1.276,1.206 -0.318,0.474 -0.479,0.97 -0.479,1.49 v 3.192 h 11.867 v -3.014 h -0.004 z"
   inkscape:connector-curvature="0"
   style="fill:#beea40" />
			<path
   id="path119"
   d="m 300.182,97.792 c -1.738,-0.022 -3.37,-0.236 -4.896,-0.639 -1.562,-0.425 -2.926,-1.01 -4.097,-1.756 -1.172,-0.746 -2.11,-1.625 -2.82,-2.643 -0.71,-1.018 -1.063,-2.116 -1.063,-3.299 v -5.783 c 0,-1.182 0.326,-2.294 0.982,-3.334 0.656,-1.04 1.561,-1.951 2.714,-2.731 1.152,-0.781 2.509,-1.396 4.071,-1.844 1.561,-0.449 3.299,-0.674 5.214,-0.674 1.029,0 1.952,0.059 2.769,0.177 1.453,0.166 2.801,0.485 4.043,0.958 1.881,0.71 3.369,1.703 4.471,2.979 0.141,0.167 0.274,0.368 0.398,0.604 0.124,0.237 0.187,0.461 0.187,0.674 0,0.663 -0.356,1.23 -1.064,1.703 -0.71,0.474 -1.562,0.708 -2.555,0.708 -0.78,0 -1.419,-0.135 -1.916,-0.407 -0.496,-0.271 -0.939,-0.609 -1.331,-1.011 -0.425,-0.473 -1.011,-0.851 -1.755,-1.136 -0.603,-0.236 -1.383,-0.437 -2.341,-0.604 -0.284,-0.022 -0.604,-0.035 -0.957,-0.035 -0.852,0 -1.632,0.101 -2.342,0.302 -0.71,0.202 -1.33,0.467 -1.862,0.799 -0.532,0.331 -0.958,0.733 -1.275,1.206 -0.321,0.474 -0.48,0.97 -0.48,1.49 v 5.676 c -0.035,0.662 0.097,1.206 0.399,1.632 0.301,0.425 0.727,0.815 1.276,1.171 0.551,0.355 1.188,0.638 1.916,0.851 0.727,0.213 1.552,0.333 2.474,0.355 0.923,0 1.694,-0.094 2.315,-0.285 0.62,-0.188 1.188,-0.454 1.702,-0.797 0.515,-0.343 0.931,-0.751 1.251,-1.224 0.318,-0.473 0.479,-0.958 0.479,-1.455 h -1.224 c -0.958,0 -1.783,-0.23 -2.475,-0.691 -0.691,-0.461 -1.038,-1.022 -1.038,-1.685 0,-0.686 0.347,-1.259 1.038,-1.72 0.692,-0.461 1.517,-0.692 2.475,-0.692 h 4.681 c 1.03,0 1.881,0.23 2.556,0.692 0.673,0.461 1.045,1.034 1.116,1.72 v 2.165 c -0.105,1.182 -0.486,2.294 -1.142,3.334 -0.659,1.042 -1.563,1.952 -2.714,2.732 -1.154,0.781 -2.511,1.396 -4.072,1.844 -1.561,0.449 -3.264,0.673 -5.108,0.673 z"
   inkscape:connector-curvature="0"
   style="fill:#beea40" />
			<path
   id="path121"
   d="m 335.142,93.003 c 0.993,0 1.835,0.237 2.527,0.709 0.691,0.474 1.038,1.029 1.038,1.667 0,0.687 -0.347,1.259 -1.038,1.721 -0.692,0.46 -1.534,0.692 -2.527,0.692 h -15.22 c -0.923,0 -1.747,-0.23 -2.474,-0.692 -0.728,-0.461 -1.09,-1.034 -1.09,-1.721 V 77.537 c 0,-0.614 0.334,-1.171 1.01,-1.667 0.673,-0.497 1.524,-0.745 2.554,-0.745 h 15.22 c 0.993,0 1.835,0.237 2.527,0.71 0.691,0.474 1.038,1.041 1.038,1.702 0,0.687 -0.347,1.254 -1.038,1.703 -0.692,0.45 -1.534,0.673 -2.527,0.673 h -11.706 v 4.045 h 8.141 c 0.958,0 1.791,0.237 2.501,0.709 0.71,0.473 1.064,1.042 1.064,1.702 0,0.663 -0.355,1.224 -1.064,1.686 -0.709,0.46 -1.543,0.691 -2.501,0.691 h -8.141 v 4.257 l 11.706,0 0,0 z"
   inkscape:connector-curvature="0"
   style="fill:#beea40" />
			<path
   id="path123"
   d="m 352.167,79.914 c -0.851,0 -1.568,0.208 -2.154,0.62 -0.586,0.415 -0.896,0.929 -0.931,1.543 0.035,0.544 0.345,1.012 0.931,1.402 0.586,0.39 1.304,0.585 2.154,0.585 h 3.619 c 1.313,0 2.582,0.177 3.806,0.532 1.224,0.355 2.313,0.846 3.271,1.472 0.959,0.627 1.72,1.36 2.289,2.198 0.566,0.84 0.852,1.733 0.852,2.679 0,0.921 -0.268,1.796 -0.8,2.625 -0.53,0.829 -1.259,1.549 -2.182,2.164 -0.923,0.615 -2.004,1.105 -3.246,1.472 -1.242,0.367 -2.572,0.562 -3.991,0.585 h -9.472 c -1.063,0 -1.933,-0.23 -2.606,-0.691 -0.674,-0.461 -1.011,-1.034 -1.011,-1.721 0,-0.638 0.346,-1.193 1.037,-1.667 0.692,-0.473 1.552,-0.709 2.58,-0.709 h 9.472 c 0.816,0 1.544,-0.202 2.183,-0.604 0.638,-0.402 0.957,-0.886 0.957,-1.454 0,-0.591 -0.31,-1.083 -0.93,-1.472 -0.621,-0.39 -1.342,-0.597 -2.157,-0.622 h -3.671 c -1.347,-0.022 -2.642,-0.213 -3.884,-0.567 -1.241,-0.355 -2.333,-0.833 -3.274,-1.437 -0.94,-0.604 -1.692,-1.318 -2.261,-2.146 -0.566,-0.828 -0.852,-1.727 -0.852,-2.696 0,-0.875 0.267,-1.726 0.799,-2.553 0.532,-0.829 1.268,-1.562 2.209,-2.2 0.938,-0.638 2.029,-1.152 3.271,-1.543 1.241,-0.39 2.572,-0.585 3.991,-0.585 h 9.472 c 0.958,0 1.773,0.23 2.447,0.691 0.674,0.461 1.046,1.035 1.117,1.72 0,0.687 -0.337,1.254 -1.011,1.703 -0.673,0.45 -1.524,0.674 -2.554,0.674 h -9.472 v 0.002 z"
   inkscape:connector-curvature="0"
   style="fill:#beea40" />
		</g>
		<g
   id="g125">
			<path
   id="path127"
   d="m 217.266,112.749 h 1.732 1.731 l 12.143,27.021 h -1.455 -1.454 l -2.721,-6.057 h -16.488 l -2.722,6.057 h -1.455 -1.454 l 12.143,-27.021 z m -5.297,18.216 h 14.059 l -7.031,-15.604 h 0.005 l -7.033,15.604 z"
   inkscape:connector-curvature="0"
   style="fill:#ff9000" />
			<path
   id="path129"
   d="m 259.391,130.583 c 0,4.293 -0.639,6.943 -1.915,7.948 -1.275,1.006 -4.627,1.509 -10.055,1.509 -5.576,0 -8.962,-0.687 -10.158,-2.06 -1.194,-1.374 -1.799,-5.272 -1.81,-11.698 0.011,-6.44 0.676,-10.351 1.991,-11.732 1.316,-1.381 5.04,-2.071 11.174,-2.071 4.825,0 7.807,0.476 8.945,1.43 1.138,0.953 1.706,3.448 1.706,7.487 h -2.633 c 0,-2.703 -0.492,-4.369 -1.473,-4.999 -0.981,-0.63 -3.561,-0.946 -7.741,-0.946 -4.479,0 -7.154,0.506 -8.026,1.521 -0.87,1.012 -1.307,4.117 -1.307,9.31 0,5.179 0.437,8.271 1.307,9.277 0.872,1.006 3.548,1.509 8.026,1.509 4.227,0 6.838,-0.345 7.837,-1.036 0.999,-0.69 1.499,-2.506 1.499,-5.449 h 2.633 z"
   inkscape:connector-curvature="0"
   style="fill:#ff9000" />
			<path
   id="path131"
   d="m 272.313,115.7 h -10.48 v -1.463 -1.487 h 23.591 v 1.464 1.486 h -10.479 v 24.07 h -1.315 -1.316 V 115.7 z"
   inkscape:connector-curvature="0"
   style="fill:#ff9000" />
			<path
   id="path133"
   d="m 287.987,112.749 h 1.315 1.316 v 27.021 h -1.316 -1.315 v -27.021 z"
   inkscape:connector-curvature="0"
   style="fill:#ff9000" />
			<path
   id="path135"
   d="m 293.219,112.749 h 1.51 1.527 l 10.159,23.621 h 0.018 l 10.136,-23.621 h 1.42 1.438 l -11.639,27.021 h -1.474 -1.473 l -11.622,-27.021 z"
   inkscape:connector-curvature="0"
   style="fill:#ff9000" />
			<path
   id="path137"
   d="m 322.336,139.77 v -27.021 h 20.854 v 1.464 1.486 h -18.22 v 8.827 h 17.163 v 1.374 1.374 H 324.97 v 9.547 h 18.221 v 1.464 1.486 h -20.855 z"
   inkscape:connector-curvature="0"
   style="fill:#ff9000" />
			<path
   id="path139"
   d="m 367.128,120.314 c 0,-2.207 -0.481,-3.568 -1.445,-4.087 -0.967,-0.519 -3.491,-0.776 -7.579,-0.776 -3.73,0 -6.167,0.296 -7.31,0.889 -1.143,0.593 -1.715,1.865 -1.715,3.817 0,1.861 0.583,3.069 1.75,3.625 1.154,0.555 3.614,0.788 7.382,0.697 4.886,-0.089 8.086,0.346 9.6,1.307 1.496,0.961 2.245,3.047 2.245,6.259 0,3.303 -0.751,5.461 -2.253,6.474 -1.502,1.014 -4.695,1.521 -9.579,1.521 -4.967,0 -8.181,-0.552 -9.642,-1.655 -1.46,-1.103 -2.191,-3.524 -2.191,-7.262 h 2.46 c 0,2.702 0.498,4.369 1.498,4.999 0.999,0.63 3.623,0.945 7.875,0.945 3.869,0 6.398,-0.314 7.588,-0.945 1.189,-0.631 1.785,-1.974 1.785,-4.031 0,-1.967 -0.596,-3.243 -1.784,-3.827 -1.19,-0.586 -3.715,-0.841 -7.572,-0.766 -4.795,0.104 -7.933,-0.307 -9.41,-1.238 -1.473,-0.931 -2.209,-2.95 -2.209,-6.057 0,-3.197 0.729,-5.284 2.182,-6.259 1.456,-0.976 4.556,-1.463 9.302,-1.463 4.828,0 7.947,0.484 9.363,1.452 1.415,0.968 2.122,3.096 2.122,6.383 h -2.463 z"
   inkscape:connector-curvature="0"
   style="fill:#ff9000" />
		</g>
		<linearGradient
   id="rect152_1_"
   gradientUnits="userSpaceOnUse"
   x1="450.22171"
   y1="158.99409"
   x2="615.09857"
   y2="158.99409"
   gradientTransform="matrix(1,0,0,-1,-247.6602,264.373)">
			<stop
   offset="0.0193"
   style="stop-color:#FFFFFF"
   id="stop96" />
			<stop
   offset="0.5025"
   style="stop-color:#000000"
   id="stop98" />
			<stop
   offset="0.6084"
   style="stop-color:#323232"
   id="stop100" />
			<stop
   offset="0.8485"
   style="stop-color:#AEAEAE"
   id="stop102" />
			<stop
   offset="1"
   style="stop-color:#FFFFFF"
   id="stop104" />
		</linearGradient>
		<rect
   id="rect152"
   x="202.562"
   y="104.345"
   enable-background="new    "
   width="164.877"
   height="2.0669999"
   style="opacity:0.5;fill:url(#rect152_1_)" />
	</g>
	
	
	<g
   id="g3"
   transform="matrix(0.94243452,0,0,0.90762112,13.53687,-5.6075139)">
		<polygon
   id="polygon5"
   points="29.988,46.828 1.864,46.828 18.979,89.977 "
   style="fill:#bde83e" />
		<polygon
   id="polygon7"
   enable-background="new    "
   points="30.912,46.871 13.883,46.844 18.979,89.977 "
   style="opacity:0.02999998" />
		<polygon
   id="polygon9"
   enable-background="new    "
   points="31.906,46.871 14.877,46.844 19.103,90.283 "
   style="opacity:0.02999998" />
		<polygon
   id="polygon11"
   enable-background="new    "
   points="30.962,46.896 16.071,46.871 19.501,90.105 "
   style="opacity:0.02999998" />
		<polygon
   id="polygon13"
   enable-background="new    "
   points="30.689,46.871 17.314,46.844 19.253,90.259 "
   style="opacity:0.02999998" />
		<polygon
   id="polygon15"
   enable-background="new    "
   points="30.615,46.871 18.507,46.844 19.353,90.465 "
   style="opacity:0.02999998" />
		<polygon
   id="polygon17"
   enable-background="new    "
   points="30.59,46.871 20.521,46.844 19.377,90.413 "
   style="opacity:0.02999998" />
		<polygon
   id="polygon19"
   enable-background="new    "
   points="30.813,46.844 22.857,46.819 19.402,89.54 "
   style="opacity:0.02999998" />
		<polygon
   id="polygon21"
   enable-background="new    "
   points="30.838,46.871 25.692,46.844 19.576,88.771 "
   style="opacity:0.02999998" />
		<polygon
   id="polygon23"
   points="18.93,92.079 58.308,86.311 36.73,23.279 "
   style="fill:#adadad" />
		<polygon
   id="polygon25"
   points="91.82,41.057 83.169,40.511 60.148,86.438 62.184,102.204 93.759,80.758 "
   style="fill:#fa8704" />
		<path
   id="path27"
   inkscape:connector-curvature="0"
   d="m 36.771,23.552 c 0,0 -3.049,54.774 -3.314,61.338 -0.134,3.33 4.171,3.77 7.226,3.265 1.657,-0.272 16.506,-2.153 16.506,-2.153"
   style="fill:#a3a3a3" />
		<polygon
   id="polygon29"
   points="60.977,100.917 59.538,86.411 60.518,86.09 62.208,102.229 " />
		<path
   id="path31"
   inkscape:connector-curvature="0"
   d="m 36.546,23.563 c 0,0 -0.571,54.352 -0.836,60.918 -0.134,3.33 3.84,3.238 6.895,2.735 2.197,-0.363 2.119,-0.936 14.186,-1.471 L 36.546,23.563 z"
   style="fill:#999999" />
		<path
   id="path33"
   inkscape:connector-curvature="0"
   d="m 36.97,23.416 c 0,0 0.548,53.27 0.283,59.834 -0.134,3.33 3.839,3.238 6.895,2.734 1.657,-0.274 9.397,-0.82 9.397,-0.82 L 36.97,23.416 z"
   style="fill:#939393" />
		<path
   id="path35-1"
   inkscape:connector-curvature="0"
   enable-background="new    "
   d="m 36.838,23.416 c 0,0 2.221,51.729 1.956,58.295 -0.134,3.33 3.558,4.025 6.613,3.522 1.657,-0.272 8.137,-0.342 8.137,-0.342 L 36.838,23.416 z"
   style="opacity:0.6;fill:#878787" />
		<polygon
   id="polygon37"
   enable-background="new    "
   points="66.996,95.015 61.277,93.624 59.85,79.95 85.296,69.981 85.928,82.168 "
   style="opacity:0.02999998;fill:#050700" />
		<polygon
   id="polygon39"
   enable-background="new    "
   points="66.548,93.732 60.829,92.341 59.402,78.669 84.848,68.698 85.48,80.885 "
   style="opacity:0.02999998;fill:#050700" />
		<polygon
   id="polygon41"
   enable-background="new    "
   points="66.199,92.732 60.48,91.342 59.055,77.668 84.5,67.698 85.132,79.884 "
   style="opacity:0.02999998;fill:#050700" />
		<polygon
   id="polygon43"
   enable-background="new    "
   points="65.927,91.604 60.207,90.214 58.781,76.54 84.227,66.57 84.858,78.756 "
   style="opacity:0.02999998;fill:#050700" />
		<polygon
   id="polygon45"
   enable-background="new    "
   points="65.629,90.604 59.91,89.213 58.483,75.54 83.928,65.569 84.56,77.756 "
   style="opacity:0.02999998;fill:#050700" />
		<path
   id="path47-7"
   inkscape:connector-curvature="0"
   enable-background="new    "
   d="m 37.302,24.441 c 0,0 3.812,49.679 3.547,56.244 -0.135,3.33 3.558,4.025 6.611,3.522 1.657,-0.272 2.039,-0.616 2.039,-0.616 L 37.302,24.441 z"
   style="opacity:0.1" />
		<polygon
   id="polygon49"
   points="43.765,81.523 37.302,23.09 83.584,26.982 86.119,75.885 67.187,88.731 44.644,83.25 "
   style="fill:#bde83e" />
		<path
   id="path51-4"
   inkscape:connector-curvature="0"
   enable-background="new    "
   d="m 44.213,82.287 14.403,-9.705 c 1.633,-1.109 2.612,-1.631 3.214,-0.41 0.077,0.196 1.037,6.114 1.922,8.035 0.173,0.375 -19.046,2.713 -19.046,2.713 l -0.493,-0.633 0,0 z"
   style="opacity:0.02999998" />
		<path
   id="path53"
   inkscape:connector-curvature="0"
   enable-background="new    "
   d="m 45.715,82.941 -1.124,-0.279 15.675,-10.37 c 1.582,-1.074 2.44,5.265 3.024,6.447 0.073,0.186 -17.575,4.202 -17.575,4.202 z"
   style="opacity:0.02999998" />
		<path
   id="path55-0"
   inkscape:connector-curvature="0"
   enable-background="new    "
   d="m 44.898,82.829 14.965,-9.638 c 1.586,-1.075 2.145,2.686 2.729,3.869 0.075,0.191 -8.818,4.036 -14.33,6.109 -2.171,0.817 -3.364,-0.34 -3.364,-0.34 l 0,0 z"
   style="opacity:0.05" />
		<g
   id="g57"
   style="opacity:0.5">
			<polygon
   id="polygon59"
   enable-background="new    "
   points="43.882,81.385 37.418,22.953 60.838,24.923 75.004,83.37 67.302,88.595 44.76,83.113 "
   style="opacity:0.02999998" />
			<g
   id="g61">
				<polygon
   id="polygon63"
   enable-background="new    "
   points="43.815,81.455 37.351,23.021 60.771,24.99 74.938,83.439 67.237,88.664 44.693,83.181 "
   style="opacity:0.02000002" />
				<polygon
   id="polygon65"
   enable-background="new    "
   points="43.997,82.155 37.037,23.142 58.119,24.854 72.836,84.891 67.332,88.515 45.257,83.25 "
   style="opacity:0.02000002" />
				<polygon
   id="polygon67"
   enable-background="new    "
   points="43.799,80.719 37.102,22.937 51.886,24.304 66.472,88.309 63.157,86.943 45.324,82.909 "
   style="opacity:0.02999998" />
				<polygon
   id="polygon69"
   enable-background="new    "
   points="43.998,81.677 37.102,22.937 47.711,23.825 62.56,87.216 58.98,86.464 45.059,82.909 "
   style="opacity:0.02999998" />
				<polygon
   id="polygon71"
   enable-background="new    "
   points="43.932,81.814 36.97,23.006 55.267,24.577 69.985,86.874 67.135,88.72 45.656,82.976 "
   style="opacity:0.02999998" />
			</g>
		</g>
		<path
   id="path73"
   inkscape:connector-curvature="0"
   enable-background="new    "
   d="m 44.928,83.086 14.38,-8.994 c 1.57,-1.064 1.912,-0.187 2.489,0.985 0.074,0.187 -7.332,6.391 -12.888,8.488 -2.639,-0.095 -3.981,-0.479 -3.981,-0.479 z"
   style="opacity:0.05" />
		<path
   id="path75"
   inkscape:connector-curvature="0"
   d="m 60.156,74.736 c 1.26,-0.854 1.244,-0.581 1.708,0.358 0.214,0.547 5.373,13.62 5.373,13.62 L 44.86,83.284 60.156,74.736 z"
   style="fill:#dff59d" />
		<path
   id="path77"
   inkscape:connector-curvature="0"
   d="m 1.864,46.828 -0.334,0.559 17.19,44.691 0.523,-0.047 17.18,-67.658 c 0,0 0.033,-0.196 0.144,-0.183 0.112,0.013 0.136,0.183 0.136,0.183 l 6.885,57.457 c 0,0 0.124,2.099 2.409,1.323 3.496,-1.854 14.801,-8.812 14.801,-8.812 0,0 0.58,-0.415 1.112,0.91 0,0 -0.663,-1.682 -1.288,-1.522 -8.417,5.295 -14.971,8.941 -14.971,8.941 0,0 -1.407,0.451 -1.625,-1.744 -0.219,-2.195 -6.349,-57.01 -6.539,-57.444 -0.015,-0.2 -0.039,-0.241 -0.113,-0.395 -0.229,-0.213 -0.773,-0.204 -1.053,-0.037 -0.254,0.153 -0.374,0.432 -0.448,0.74 -0.329,0.74 -16.725,65.496 -16.725,65.496 L 18.975,89.787 1.864,46.828 z" />
		<path
   id="path79"
   inkscape:connector-curvature="0"
   d="M 76.741,43.675 75.99,34.476 52.677,33.411 v 2.066 c 0,0 0.344,1.226 -1.909,1.324 -2.253,0.097 -2.096,-1.743 -2.066,-2.517 0.032,-0.775 -0.015,-2.099 -0.015,-2.099 0,0 -0.08,-2.744 4.99,-2.389 5.069,0.354 22.407,1.549 22.407,1.549 0,0 2.567,0.162 2.816,3.423 0.251,3.26 1.721,26.985 1.721,26.985 0,0 0.69,3.002 -3.003,3.681 -3.694,0.676 -22.468,4.229 -22.468,4.229 0,0 -4.789,1.583 -5.446,-4.326 -0.594,-7.07 -1.596,-17.334 -1.596,-17.334 0,0 -0.594,-3.84 4.63,-3.937 9.857,-0.293 24.003,-0.391 24.003,-0.391 z" />
		<polygon
   id="polygon81"
   points="53.801,65.957 77.71,62.169 76.501,46.633 52.048,47.666 "
   style="fill:#ffffff" />
		<g
   id="g83">
			<ellipse
   id="ellipse85"
   sodipodi:cx="66.470001"
   sodipodi:cy="52.755001"
   sodipodi:ry="8.4250002"
   sodipodi:rx="8.4510002"
   cx="66.470001"
   cy="52.755001"
   rx="8.4510002"
   ry="8.4250002"
   d="m 74.921001,52.755001 c 0,4.652999 -3.783641,8.425 -8.451,8.425 -4.667358,0 -8.451,-3.772001 -8.451,-8.425 0,-4.652999 3.783642,-8.425 8.451,-8.425 4.667359,0 8.451,3.772001 8.451,8.425 z">
			</ellipse>
			<path
   id="path87"
   inkscape:connector-curvature="0"
   d="m 70.917,47.101 c 1.688,1.34 2.757,3.467 2.709,5.838 -0.08,3.955 -3.239,7.094 -7.054,7.013 -3.815,-0.083 -6.844,-3.356 -6.765,-7.311 0.041,-2.012 0.878,-3.812 2.194,-5.086 l 8.916,-0.454 z"
   style="fill:#ffce00" />
			<ellipse
   id="ellipse89"
   sodipodi:cx="67.065002"
   sodipodi:cy="55.724998"
   sodipodi:ry="5.1329999"
   sodipodi:rx="5.3509998"
   cx="67.065002"
   cy="55.724998"
   rx="5.3509998"
   ry="5.1329999"
   d="m 72.416002,55.724998 c 0,2.834878 -2.395724,5.133 -5.351,5.133 -2.955275,0 -5.350999,-2.298122 -5.350999,-5.133 0,-2.834877 2.395724,-5.132999 5.350999,-5.132999 2.955276,0 5.351,2.298122 5.351,5.132999 z">
			</ellipse>
			<ellipse
   id="circle91"
   sodipodi:cx="69.442001"
   sodipodi:cy="56.047001"
   sodipodi:ry="2.0079999"
   sodipodi:rx="2.02"
   cx="69.442001"
   cy="56.047001"
   rx="2.02"
   ry="2.0079999"
   d="m 71.462001,56.047001 c 0,1.108988 -0.904384,2.008 -2.02,2.008 -1.115615,0 -2.02,-0.899012 -2.02,-2.008 0,-1.108988 0.904385,-2.008 2.02,-2.008 1.115616,0 2.02,0.899012 2.02,2.008 z"
   style="fill:#ffffff">
			</ellipse>
			<path
   id="path93"
   inkscape:connector-curvature="0"
   enable-background="new    "
   d="m 64.4,47.486 c -1.89,1.693 -2.342,3.223 -2.487,5.59 -0.447,7.334 8.475,7.009 4.659,6.927 -3.815,-0.083 -6.844,-3.355 -6.765,-7.311 0.041,-2.012 0.878,-3.813 2.194,-5.085 l 2.399,-0.121 0,0 z"
   style="opacity:0.02000002" />
			<path
   id="path95"
   inkscape:connector-curvature="0"
   enable-background="new    "
   d="m 65.045,47.537 c -1.889,1.693 -2.341,3.224 -2.486,5.59 -0.446,7.334 8.477,7.009 4.659,6.927 -3.816,-0.082 -6.844,-3.355 -6.764,-7.31 0.041,-2.012 0.877,-3.812 2.193,-5.086 l 2.398,-0.121 z"
   style="opacity:0.02000002" />
			<path
   id="path97"
   inkscape:connector-curvature="0"
   enable-background="new    "
   d="m 65.94,47.383 c -1.889,1.692 -2.341,3.222 -2.484,5.59 -0.449,7.334 8.475,7.009 4.657,6.926 -3.815,-0.083 -6.844,-3.355 -6.765,-7.311 0.042,-2.012 0.878,-3.812 2.193,-5.085 l 2.399,-0.12 0,0 z"
   style="opacity:0.02000002" />
		</g>
		<path
   id="path99"
   inkscape:connector-curvature="0"
   enable-background="new    "
   d="m 47.676,83.899 18.729,4.683 c 0,0 0.629,0.206 -0.298,-0.853 -0.929,-1.06 -3.747,-4.274 -6.266,-5.54 -2.518,-1.265 -5.601,-1.47 -9.148,-0.581 -2.12,0.581 -4.973,1.47 -3.017,2.291 z"
   style="opacity:0.02000002" />
		<path
   id="path101"
   inkscape:connector-curvature="0"
   enable-background="new    "
   d="m 50.269,83.704 14.195,3.55 c 0,0 0.477,0.155 -0.226,-0.648 -0.703,-0.802 -2.864,-2.695 -4.774,-3.654 -1.908,-0.958 -4.22,-1.659 -6.908,-0.984 -1.608,0.441 -3.768,1.113 -2.287,1.736 z"
   style="opacity:0.02000002" />
		<path
   id="path103"
   inkscape:connector-curvature="0"
   enable-background="new    "
   d="m 51.835,83.508 10.619,2.655 c 0,0 0.358,0.115 -0.169,-0.485 -0.528,-0.6 -2.143,-2.016 -3.571,-2.732 -1.429,-0.718 -3.159,-1.241 -5.169,-0.736 -1.203,0.327 -2.819,0.831 -1.71,1.298 l 0,0 z"
   style="opacity:0.02000002" />
		<path
   id="path105"
   inkscape:connector-curvature="0"
   enable-background="new    "
   d="m 53.497,83.426 8.353,2.088 c 0,0 0.28,0.093 -0.134,-0.381 -0.414,-0.473 -1.685,-1.586 -2.809,-2.149 -1.123,-0.564 -2.482,-0.976 -4.064,-0.579 -0.946,0.258 -2.217,0.655 -1.346,1.021 z"
   style="opacity:0.02000002" />
		<path
   id="path107"
   inkscape:connector-curvature="0"
   enable-background="new    "
   d="M 93.387,79.626 91.53,41.537 c 0,0 -0.198,-0.685 -1.392,0.137 -1.192,0.821 -2.519,20.583 -1.325,28.585 1.193,7.999 3.314,13.06 4.574,9.367 z"
   style="opacity:0.1;fill:#ffffff" />
		<path
   id="path109"
   inkscape:connector-curvature="0"
   enable-background="new    "
   d="M 93.361,79.437 91.447,41.613 c 0,0 0.026,-0.359 -0.323,-0.205 -1.318,0.582 -1.979,19.754 -0.787,27.754 1.194,8.002 1.765,13.968 3.024,10.275 l 0,0 z"
   style="opacity:0.05;fill:#ffffff" />
		<path
   id="path111"
   inkscape:connector-curvature="0"
   enable-background="new    "
   d="M 93.361,79.36 91.547,42.023 c 0,0 -0.025,-0.641 -0.075,-0.563 -0.795,1.23 -0.879,19.734 0.059,27.772 0.886,7.59 1.358,10.82 1.83,10.128 l 0,0 z"
   style="opacity:0.05;fill:#ffffff" />
		<path
   id="path113-9"
   inkscape:connector-curvature="0"
   enable-background="new    "
   d="M 93.361,79.207 91.522,42.153 c 0,0 0,-0.795 -0.149,-0.667 -1.101,0.947 -1.888,19.668 -0.695,27.668 1.192,8.001 1.938,12.052 2.683,10.053 z"
   style="opacity:0.05;fill:#ffffff" />
		<path
   id="path115-4"
   inkscape:connector-curvature="0"
   enable-background="new    "
   d="M 85.61,74.651 82.991,27.286 c 0,0 -0.183,-0.847 -1.141,0.199 -0.959,1.046 -1.481,25.667 -0.269,35.6 1.211,9.933 3.099,16.187 4.029,11.566 z"
   style="opacity:0.1;fill:#ffffff" />
		<path
   id="path117-8"
   inkscape:connector-curvature="0"
   enable-background="new    "
   d="M 85.584,74.418 82.923,27.385 c 0,0 0.011,-0.447 -0.27,-0.249 -1.068,0.752 -1.062,24.625 0.149,34.557 1.211,9.933 1.852,17.346 2.782,12.725 z"
   style="opacity:0.05;fill:#ffffff" />
		<path
   id="path119-8"
   inkscape:connector-curvature="0"
   enable-background="new    "
   d="m 85.581,74.322 -2.563,-46.43 c 0,0 -0.038,-0.797 -0.077,-0.7 -0.619,1.548 -0.157,24.578 0.844,34.561 0.947,9.43 1.428,13.44 1.796,12.569 z"
   style="opacity:0.05;fill:#ffffff" />
		<path
   id="path121-2"
   inkscape:connector-curvature="0"
   enable-background="new    "
   d="M 85.578,74.13 83.003,28.053 c 0,0 -0.022,-0.99 -0.142,-0.827 -0.878,1.201 -0.988,24.517 0.222,34.449 1.209,9.933 1.937,14.959 2.495,12.455 z"
   style="opacity:0.05;fill:#ffffff" />
	</g>
<text
   xml:space="preserve"
   style="font-size:15.99013138px;font-style:normal;font-weight:normal;line-height:125%;letter-spacing:0px;word-spacing:0px;fill:#000000;fill-opacity:1;stroke:none;font-family:Sans"
   x="30.105265"
   y="127.20184"
   id="text3098"
   sodipodi:linespacing="125%"><tspan
     sodipodi:role="line"
     id="tspan3100"
     x="30.105265"
     y="127.20184"
     style="font-size:13.99136448px;font-style:normal;font-variant:normal;font-weight:normal;font-stretch:normal;fill:#8e8d8d;fill-opacity:1;font-family:Arial;-inkscape-font-specification:Arial">Réalisé avec le logiciel Images Actives édité par le</tspan><tspan
     sodipodi:role="line"
     x="30.105265"
     y="144.69106"
     style="font-size:13.99136448px;font-style:normal;font-variant:normal;font-weight:normal;font-stretch:normal;fill:#8e8d8d;fill-opacity:1;font-family:Arial;-inkscape-font-specification:Arial"
     id="tspan3912" /></text>


<a
   id="a3390"
   xlink:href="http://www.crdp.ac-versailles.fr"
   target="_blank"
   xlink:title="CRDP Académie de Versailles"><text
     sodipodi:linespacing="125%"
     id="text3098-1"
     y="143.51866"
     x="30.508337"
     style="font-size:15.99013138px;font-style:normal;font-weight:normal;line-height:125%;letter-spacing:0px;word-spacing:0px;fill:#000000;fill-opacity:1;stroke:none;font-family:Sans"
     xml:space="preserve"><tspan
       id="tspan3912-4"
       style="font-size:13.99136472px;font-style:normal;font-variant:normal;font-weight:bold;font-stretch:normal;fill:#8e8d8d;fill-opacity:1;font-family:Arial;-inkscape-font-specification:Arial Bold;text-anchor:start;text-align:start;writing-mode:lr;line-height:125%"
       y="143.51866"
       x="30.508337"
       sodipodi:role="line">CRDP de l'académie de Versailles.</tspan></text>
</a><text
   xml:space="preserve"
   style="font-size:15.99013138px;font-style:normal;font-weight:normal;line-height:125%;letter-spacing:0px;word-spacing:0px;fill:#000000;fill-opacity:1;stroke:none;font-family:Sans"
   x="30.508337"
   y="135.22388"
   id="text3098-2"
   sodipodi:linespacing="125%"><tspan
     sodipodi:role="line"
     x="30.508337"
     y="135.22388"
     style="font-size:13.99136448px;font-style:normal;font-variant:normal;font-weight:normal;font-stretch:normal;fill:#8e8d8d;fill-opacity:1;font-family:Arial;-inkscape-font-specification:Arial"
     id="tspan3872" /><tspan
     sodipodi:role="line"
     x="30.508337"
     y="152.71309"
     style="font-size:13.99136448px;font-style:normal;font-variant:normal;font-weight:normal;font-stretch:normal;fill:#8e8d8d;fill-opacity:1;font-family:Arial;-inkscape-font-specification:Arial"
     id="tspan3902" /><tspan
     sodipodi:role="line"
     x="30.508337"
     y="170.20229"
     style="font-size:13.99136448px;font-style:normal;font-variant:normal;font-weight:normal;font-stretch:normal;fill:#8e8d8d;fill-opacity:1;font-family:Arial;-inkscape-font-specification:Arial"
     id="tspan3874">Développement : Joachim Dornbusch</tspan><tspan
     sodipodi:role="line"
     x="30.508337"
     y="187.6915"
     style="font-size:13.99136448px;font-style:normal;font-variant:normal;font-weight:normal;font-stretch:normal;fill:#8e8d8d;fill-opacity:1;font-family:Arial;-inkscape-font-specification:Arial"
     id="tspan3876">Ergonomie : Aurélie Chauvet, Abder Imine,</tspan><tspan
     sodipodi:role="line"
     x="30.508337"
     y="205.18069"
     style="font-size:13.99136448px;font-style:normal;font-variant:normal;font-weight:normal;font-stretch:normal;fill:#8e8d8d;fill-opacity:1;font-family:Arial;-inkscape-font-specification:Arial"
     id="tspan3886">Marie Persiaux, Isabelle Perucho</tspan><tspan
     sodipodi:role="line"
     x="30.508337"
     y="222.66991"
     style="font-size:13.99136448px;font-style:normal;font-variant:normal;font-weight:normal;font-stretch:normal;fill:#8e8d8d;fill-opacity:1;font-family:Arial;-inkscape-font-specification:Arial"
     id="tspan3878">Graphismes : Wahid Mendil</tspan><tspan
     sodipodi:role="line"
     x="30.508337"
     y="240.1591"
     style="font-size:13.99136448px;font-style:normal;font-variant:normal;font-weight:normal;font-stretch:normal;fill:#8e8d8d;fill-opacity:1;font-family:Arial;-inkscape-font-specification:Arial"
     id="tspan3880" /><tspan
     sodipodi:role="line"
     x="30.508337"
     y="257.64832"
     style="font-size:13.99136448px;font-style:normal;font-variant:normal;font-weight:normal;font-stretch:normal;fill:#8e8d8d;fill-opacity:1;font-family:Arial;-inkscape-font-specification:Arial"
     id="tspan3882">Copyright (c) 2011 Centre régional de documentation</tspan><tspan
     sodipodi:role="line"
     x="30.508337"
     y="275.13751"
     style="font-size:13.99136448px;font-style:normal;font-variant:normal;font-weight:normal;font-stretch:normal;fill:#8e8d8d;fill-opacity:1;font-family:Arial;-inkscape-font-specification:Arial"
     id="tspan3888">pédagogique de l'académie de Versailles</tspan><tspan
     sodipodi:role="line"
     x="30.508337"
     y="292.62674"
     style="font-size:13.99136448px;font-style:normal;font-variant:normal;font-weight:normal;font-stretch:normal;fill:#8e8d8d;fill-opacity:1;font-family:Arial;-inkscape-font-specification:Arial"
     id="tspan3884">Images Actives est un logiciel libre; vous pouvez le </tspan><tspan
     sodipodi:role="line"
     x="30.508337"
     y="310.11594"
     style="font-size:13.99136448px;font-style:normal;font-variant:normal;font-weight:normal;font-stretch:normal;fill:#8e8d8d;fill-opacity:1;font-family:Arial;-inkscape-font-specification:Arial"
     id="tspan3898">redistribuer et/ou le modifier selon les termes de la</tspan><tspan
     sodipodi:role="line"
     x="30.508337"
     y="327.60513"
     style="font-size:13.99136448px;font-style:normal;font-variant:normal;font-weight:normal;font-stretch:normal;fill:#8e8d8d;fill-opacity:1;font-family:Arial;-inkscape-font-specification:Arial"
     id="tspan3912-3">Licence publique générale (GNU).</tspan></text>
</svg>