<?xml version="1.0" encoding="utf-8"?>
<!-- Generator: Adobe Illustrator 14.0.0, SVG Export Plug-In . SVG Version: 6.00 Build 43363)  -->
<!DOCTYPE svg PUBLIC "-//W3C//DTD SVG 1.1//EN" "http://www.w3.org/Graphics/SVG/1.1/DTD/svg11.dtd">
<svg version="1.1" id="description" xmlns="http://www.w3.org/2000/svg" xmlns:xlink="http://www.w3.org/1999/xlink" x="0px" y="0px"
width="50.042px" height="50.209px" viewBox="0 -3.792 50.042 50.209" enable-background="new 0 -3.792 50.042 50.209"
xml:space="preserve">
	<g>
		<path fill="none" stroke="#000000" stroke-width="5" stroke-linecap="round" d="M47.5,14.375v15.792c0,2.761-2.24,5-5,5h-35
		c-2.762,0-5-2.239-5-5V7.5c0-2.761,2.238-5,5-5h28.125"/>
		<circle cx="46.25" cy="3.708" r="3.708"/>
		<polygon points="14.625,36.958 27.625,46.458 23.375,36.083 	"/>
		<rect x="8.25" y="9.458" width="6.625" height="10.25"/>
		<rect x="17.5" y="16.583" width="5.125" height="2.75"/>
		<rect x="17.5" y="10.208" width="5.25" height="2.625"/>
		<rect x="8.25" y="23.708" width="14.625" height="2.375"/>
		<rect x="25.875" y="8.833" width="2" height="20.5"/>
		<rect x="30.75" y="23.958" width="10.875" height="2.625"/>
		<rect x="30.833" y="16.708" width="10.707" height="2.5"/>
		<rect x="30.875" y="9.833" width="10.709" height="2.125"/>
	</g>
</svg>
