<?xml version="1.0" encoding="utf-8"?>
<!-- Generator: Adobe Illustrator 14.0.0, SVG Export Plug-In . SVG Version: 6.00 Build 43363)  -->
<!DOCTYPE svg PUBLIC "-//W3C//DTD SVG 1.1//EN" "http://www.w3.org/Graphics/SVG/1.1/DTD/svg11.dtd">
<svg version="1.1" id="details" xmlns="http://www.w3.org/2000/svg" xmlns:xlink="http://www.w3.org/1999/xlink" x="0px" y="0px"
	 width="50.594px" height="50.23px" viewBox="0 0 50.594 50.23" enable-background="new 0 0 50.594 50.23" xml:space="preserve">
<g>
	<g>
		<path fill="none" stroke="#000000" stroke-width="5" stroke-linecap="round" d="M37.707,28.152c0,2.156-1.747,3.904-3.904,3.904
			l-5.434-0.031H6.407c-2.156,0-3.904-1.748-3.904-3.903V10.42c0-2.156,1.748-3.904,3.904-3.904h27.331
			c2.154,0,3.904,1.748,3.904,3.904v12.332L37.707,28.152z"/>
		<line fill="none" stroke="#000000" stroke-width="5" stroke-linecap="round" x1="36.771" y1="30.954" x2="48.104" y2="43.287"/>
	</g>
	<g>
		<circle fill="none" stroke="#000000" stroke-width="3" stroke-linecap="round" cx="19.855" cy="16.287" r="9.875"/>
		<path d="M19.927,12.983c-3.688,0-6.679,2.99-6.679,6.68c0,3.688,2.99,6.679,6.679,6.679c3.689,0,6.679-2.99,6.679-6.679
			S23.615,12.983,19.927,12.983z M23.159,21.816c-1.031,0-1.866-0.836-1.866-1.866c0-1.031,0.835-1.868,1.866-1.868
			c1.032,0,1.867,0.836,1.867,1.868C25.026,20.981,24.191,21.816,23.159,21.816z"/>
	</g>
</g>
</svg>
