<?xml version="1.0" encoding="UTF-8" standalone="no"?>
<!-- Created with Inkscape (http://www.inkscape.org/) -->

<svg
   xmlns:dc="http://purl.org/dc/elements/1.1/"
   xmlns:cc="http://creativecommons.org/ns#"
   xmlns:rdf="http://www.w3.org/1999/02/22-rdf-syntax-ns#"
   xmlns:svg="http://www.w3.org/2000/svg"
   xmlns="http://www.w3.org/2000/svg"
   xmlns:xlink="http://www.w3.org/1999/xlink"
   xmlns:sodipodi="http://sodipodi.sourceforge.net/DTD/sodipodi-0.dtd"
   xmlns:inkscape="http://www.inkscape.org/namespaces/inkscape"
   version="1.0"
   width="38.481438"
   height="27.994682"
   id="header_handle"
   inkscape:version="0.48.1 "
   sodipodi:docname="handle.svg">
  <metadata
     id="metadata29">
    <rdf:RDF>
      <cc:Work
         rdf:about="">
        <dc:format>image/svg+xml</dc:format>
        <dc:type
           rdf:resource="http://purl.org/dc/dcmitype/StillImage" />
      </cc:Work>
    </rdf:RDF>
  </metadata>
  <sodipodi:namedview
     pagecolor="#ffffff"
     bordercolor="#666666"
     borderopacity="1"
     objecttolerance="10"
     gridtolerance="10"
     guidetolerance="10"
     inkscape:pageopacity="0"
     inkscape:pageshadow="2"
     inkscape:window-width="640"
     inkscape:window-height="480"
     id="namedview27"
     showgrid="false"
     fit-margin-top="0"
     fit-margin-left="0"
     fit-margin-right="0"
     fit-margin-bottom="0"
     inkscape:zoom="5.4375"
     inkscape:cx="19.212004"
     inkscape:cy="14.137962"
     inkscape:window-x="0"
     inkscape:window-y="0"
     inkscape:window-maximized="0"
     inkscape:current-layer="svg5639" />
  <defs
     id="defs5641">
    <linearGradient
       id="linearGradient3629">
      <stop
         id="stop3631"
         style="stop-color:#990000;stop-opacity:1"
         offset="0" />
      <stop
         id="stop3633"
         style="stop-color:#f50000;stop-opacity:1"
         offset="1" />
    </linearGradient>
    <linearGradient
       id="linearGradient6267">
      <stop
         id="stop6269"
         style="stop-color:#ffffff;stop-opacity:1"
         offset="0" />
      <stop
         id="stop6271"
         style="stop-color:#ffffff;stop-opacity:1"
         offset="0.5" />
      <stop
         id="stop6273"
         style="stop-color:#ffffff;stop-opacity:0"
         offset="1" />
    </linearGradient>
    <linearGradient
       id="linearGradient6237">
      <stop
         id="stop6239"
         style="stop-color:#ffffff;stop-opacity:1"
         offset="0" />
      <stop
         id="stop6241"
         style="stop-color:#fbb3b3;stop-opacity:1"
         offset="1" />
    </linearGradient>
    <linearGradient
       id="linearGradient6227">
      <stop
         id="stop6229"
         style="stop-color:#fe2f2f;stop-opacity:1"
         offset="0" />
      <stop
         id="stop6235"
         style="stop-color:#ff0101;stop-opacity:1"
         offset="0.12961231" />
      <stop
         id="stop6231"
         style="stop-color:#fbb4b4;stop-opacity:1"
         offset="1" />
    </linearGradient>
    <linearGradient
       x1="13.511664"
       y1="5.8227062"
       x2="36.87714"
       y2="24.140625"
       id="linearGradient6225"
       xlink:href="#linearGradient3629"
       gradientUnits="userSpaceOnUse" />
    <linearGradient
       x1="251.83914"
       y1="503.09491"
       x2="236.53587"
       y2="484.05914"
       id="linearGradient6233"
       xlink:href="#linearGradient6227"
       gradientUnits="userSpaceOnUse" />
    <linearGradient
       x1="14.918406"
       y1="7.3124981"
       x2="13.362364"
       y2="9.2423105"
       id="linearGradient6243"
       xlink:href="#linearGradient6237"
       gradientUnits="userSpaceOnUse" />
    <radialGradient
       cx="18.34375"
       cy="30.3125"
       r="6.3125"
       fx="18.34375"
       fy="30.3125"
       id="radialGradient6265"
       xlink:href="#linearGradient6267"
       gradientUnits="userSpaceOnUse"
       gradientTransform="matrix(1.0037065,-0.798765,0.09910786,0.1245362,-3.0721959,41.189839)" />
  </defs>
  <g
     transform="matrix(0,1,1,0,-476.11924,-237.45982)"
     id="layer1">
    <path
       d="m 13.25,4.90625 c -1.9396,0.1203383 -3.21875,1.917313 -3.21875,5.15625 l 0,2.46875 c 0,1.346188 0.856569,3.094653 1.90625,3.9375 l 9.53125,7.65625 -9.53125,7.6875 c -1.04968,0.84285 -1.90625,2.59131 -1.90625,3.9375 l 0,2.46875 c 0,3.23894 1.27915,5.03591 3.21875,5.15625 1.16376,0.0722 2.54718,-0.47076 4.0625,-1.6875 l 19.90625,-16 c 1.075372,-0.864349 1.077112,-2.260943 0,-3.125 L 17.3125,6.59375 C 15.797176,5.3770126 14.41376,4.834047 13.25,4.90625 z"
       transform="translate(227.42857,471.21933)"
       id="rect5662"
       style="fill:url(#linearGradient6225);fill-opacity:1;fill-rule:evenodd;stroke:none"
       inkscape:connector-curvature="0" />
    <path
       d="m 240.80357,478.12558 c 0.44748,-0.0278 1.40906,0.22347 2.6875,1.25 l 19.90625,15.96875 -19.90625,16 c -1.27844,1.02653 -2.24001,1.27776 -2.6875,1.25 -0.38283,-0.0238 -0.50956,-0.08 -0.78125,-0.5 -0.27169,-0.42 -0.5625,-1.30007 -0.5625,-2.65625 l 0,-2.46875 c 0,-0.4978 0.7453,-2.04502 1.15625,-2.375 l 9.53125,-7.6875 1.9375,-1.5625 -1.9375,-1.5625 -9.53125,-7.65625 c -0.41095,-0.32997 -1.15625,-1.8772 -1.15625,-2.375 l 0,-2.46875 c 0,-1.35618 0.29081,-2.23625 0.5625,-2.65625 0.27169,-0.42 0.39842,-0.47625 0.78125,-0.5 z"
       id="path5674"
       style="fill:url(#linearGradient6233);fill-opacity:1;fill-rule:evenodd;stroke:none"
       inkscape:connector-curvature="0" />
    <path
       d="m 24.65625,24.125 -11.46875,9.25 c -0.41095,0.32998 -1.15625,1.8772 -1.15625,2.375 l 0,0.75 12.625,-10.15625 0,-2.21875 z"
       transform="translate(227.42857,471.21933)"
       id="path6203"
       style="opacity:0.61061946;fill:url(#radialGradient6265);fill-opacity:1;fill-rule:evenodd;stroke:none"
       inkscape:connector-curvature="0" />
    <path
       d="m 13.375,6.90625 c -0.38283,0.02375 -0.50956,0.08 -0.78125,0.5 -0.184033,0.2844932 -0.363495,0.7883401 -0.46875,1.5 L 33.5625,26.0625 35.96875,24.125 16.0625,8.15625 C 14.78406,7.12972 13.82248,6.87849 13.375,6.90625 z"
       transform="translate(227.42857,471.21933)"
       id="path6198"
       style="opacity:0.8;fill:url(#linearGradient6243);fill-opacity:1;fill-rule:evenodd;stroke:none"
       inkscape:connector-curvature="0" />
  </g>
</svg>
