<?xml version="1.0" encoding="utf-8"?>
<!-- Generator: Adobe Illustrator 14.0.0, SVG Export Plug-In . SVG Version: 6.00 Build 43363)  -->
<!DOCTYPE svg PUBLIC "-//W3C//DTD SVG 1.1//EN" "http://www.w3.org/Graphics/SVG/1.1/DTD/svg11.dtd">
<svg version="1.1" id="infos" xmlns="http://www.w3.org/2000/svg" xmlns:xlink="http://www.w3.org/1999/xlink" x="0px" y="0px"
	 width="50.042px" height="50.104px" viewBox="0 0 50.042 50.104" enable-background="new 0 0 50.042 50.104" xml:space="preserve">
<path fill="none" stroke="#000000" stroke-width="5" stroke-linecap="round" d="M47.457,20.542v15.792c0,2.762-2.238,5-5,5h-35
	c-2.762,0-5-2.238-5-5V13.667c0-2.761,2.238-5,5-5h28.125"/>
<polygon points="41.375,6 50.042,14.667 41.375,14.667 "/>
<path d="M24.021,13.125c-6.501,0-11.771,5.27-11.771,11.771c0,6.5,5.27,11.771,11.771,11.771s11.771-5.271,11.771-11.771
	C35.792,18.395,30.521,13.125,24.021,13.125z M24.137,16.072c1.298,0,2.351,1.054,2.351,2.352s-1.053,2.351-2.351,2.351
	c-1.299,0-2.351-1.052-2.351-2.351S22.838,16.072,24.137,16.072z M25.428,32.064l1.622,0.033l-0.827,2.284l-4.78,0.009
	c0,0-1.775-0.472-0.616-5.041l1.022-5.1h-1.938l0.021-2.549h5.96c0,0,1.258,0.166,1.258,1.722c0,1.557-0.629,3.875-1.191,5.331
	C25.397,30.21,25.428,32.064,25.428,32.064z"/>
</svg>
