<?xml version="1.0" encoding="utf-8"?>
<!-- Generator: Adobe Illustrator 14.0.0, SVG Export Plug-In . SVG Version: 6.00 Build 43363)  -->
<!DOCTYPE svg PUBLIC "-//W3C//DTD SVG 1.1//EN" "http://www.w3.org/Graphics/SVG/1.1/DTD/svg11.dtd">
<svg version="1.1" id="metadata" xmlns="http://www.w3.org/2000/svg" xmlns:xlink="http://www.w3.org/1999/xlink" x="0px" y="0px"
	 width="50.042px" height="50.104px" viewBox="0 0 50.042 50.104" enable-background="new 0 0 50.042 50.104" xml:space="preserve">
<path fill="none" stroke="#000000" stroke-width="5" stroke-linecap="round" d="M47.457,20.542v15.792c0,2.762-2.238,5-5,5h-35
	c-2.762,0-5-2.238-5-5V13.667c0-2.761,2.238-5,5-5h28.125"/>
<polygon points="41.375,6 50.042,14.667 41.375,14.667 "/>
<path d="M25.375,13.083c-6.535,0-11.833,5.298-11.833,11.833S18.84,36.75,25.375,36.75c6.537,0,11.833-5.298,11.833-11.833
	S31.912,13.083,25.375,13.083z"/>
<g>
	<path fill="#D8D8D8" stroke="#D8D8D8" d="M32.794,27.904c0,0.501-0.131,1.043-0.391,1.626s-0.668,1.156-1.225,1.718
		c-0.557,0.561-1.268,1.018-2.133,1.368c-0.864,0.35-1.873,0.525-3.022,0.525c-0.873,0-1.667-0.079-2.381-0.236
		c-0.715-0.156-1.364-0.401-1.946-0.734c-0.583-0.333-1.119-0.771-1.608-1.314c-0.436-0.494-0.809-1.046-1.117-1.657
		c-0.309-0.612-0.54-1.266-0.694-1.959c-0.154-0.694-0.231-1.432-0.231-2.212c0-1.266,0.193-2.399,0.581-3.401
		c0.387-1.001,0.942-1.858,1.664-2.57s1.568-1.254,2.539-1.626c0.971-0.372,2.004-0.558,3.103-0.558c1.339,0,2.53,0.254,3.577,0.762
		c1.045,0.508,1.846,1.136,2.402,1.883c0.557,0.748,0.834,1.455,0.834,2.12c0,0.365-0.135,0.688-0.406,0.966
		c-0.271,0.279-0.598,0.418-0.98,0.418c-0.429,0-0.75-0.097-0.965-0.29c-0.214-0.192-0.453-0.525-0.716-0.998
		c-0.437-0.779-0.95-1.362-1.54-1.75c-0.592-0.386-1.318-0.58-2.184-0.58c-1.376,0-2.474,0.498-3.29,1.492
		c-0.816,0.995-1.224,2.408-1.224,4.239c0,1.224,0.181,2.242,0.542,3.053c0.361,0.813,0.873,1.419,1.535,1.819
		c0.662,0.401,1.437,0.601,2.323,0.601c0.964,0,1.777-0.227,2.443-0.682c0.666-0.454,1.168-1.122,1.506-2.001
		c0.144-0.415,0.319-0.753,0.529-1.014c0.211-0.262,0.551-0.393,1.016-0.393c0.398,0,0.742,0.132,1.027,0.397
		C32.651,27.181,32.794,27.51,32.794,27.904z"/>
</g>
</svg>
